<?xml version="1.0" encoding="UTF-8"?>
<!DOCTYPE svg PUBLIC "-//W3C//DTD SVG 1.1//EN" "http://www.w3.org/Graphics/SVG/1.1/DTD/svg11.dtd">
<svg version="1.1" xmlns="http://www.w3.org/2000/svg" xmlns:xlink="http://www.w3.org/1999/xlink" x="0" y="0" width="1475.273" height="1048.762" viewBox="0, 0, 1475.273, 1048.762">
  <g id="muriInterni" transform="translate(-206.906, -93.732)">
    <path d="M1072.912,157.322 L1070.118,791.543" fill-opacity="0" stroke="#000000" stroke-width="2"/>
    <path d="M1436.906,156.559 L1441.71,791.543" fill-opacity="0" stroke="#000000" stroke-width="2"/>
    <path d="M1531.116,99.232 L1531.116,202.025" fill-opacity="0" stroke="#000000" stroke-width="2"/>
    <path d="M1677.679,347.649 L1531.116,347.309" fill-opacity="0" stroke="#000000" stroke-width="2"/>
    <path d="M1677.679,434.021 L1439.25,434.021" fill-opacity="0" stroke="#000000" stroke-width="2"/>
    <path d="M1531.116,434.021 L1531.116,347.309" fill-opacity="0" stroke="#000000" stroke-width="2"/>
    <path d="M1447.66,777.574 L1145.554,777.574" fill-opacity="0" stroke="#000000" stroke-width="2"/>
    <path d="M1441.71,1137.994 L1441.71,867.411" fill-opacity="0" stroke="#000000" stroke-width="2"/>
    <path d="M1436.907,867.411 L1070.015,867.411" fill-opacity="0" stroke="#000000" stroke-width="2"/>
    <path d="M1070.015,867.411 L1070.015,1137.994" fill-opacity="0" stroke="#000000" stroke-width="2"/>
    <path d="M1070.015,1137.994 L1436.906,1137.994" fill-opacity="0" stroke="#000000" stroke-width="2"/>
    <path d="M1128.791,1137.994 L1128.791,1101.669" fill-opacity="0" stroke="#000000" stroke-width="2"/>
    <path d="M1441.71,700.634 L1070.015,699.796" fill-opacity="0" stroke="#000000" stroke-width="2"/>
    <path d="M1145.554,573.617 L1145.554,777.574" fill-opacity="0" stroke="#000000" stroke-width="2"/>
    <path d="M1441.71,867.411 L1441.71,781.445" fill-opacity="0" stroke="#000000" stroke-width="2"/>
    <path d="M1439.25,574.589 L1145.554,573.617" fill-opacity="0" stroke="#000000" stroke-width="2"/>
    <path d="M550.448,1137.994 L553.242,822.277" fill-opacity="0" stroke="#000000" stroke-width="2"/>
    <path d="M463.836,867.411 L463.836,822.277" fill-opacity="0" stroke="#000000" stroke-width="2"/>
    <path d="M486.188,1137.994 L486.188,1079.318" fill-opacity="0" stroke="#000000" stroke-width="2"/>
    <path d="M212.406,867.411 L553.242,867.411" fill-opacity="0" stroke="#000000" stroke-width="2"/>
    <path d="M364.034,608.294 L364.034,867.411" fill-opacity="0" stroke="#000000" stroke-width="2"/>
    <path d="M364.034,706.414 L872.634,707.283" fill-opacity="0" stroke="#000000" stroke-width="2"/>
    <path d="M872.634,706.414 L872.634,648.071" fill-opacity="0" stroke="#000000" stroke-width="2"/>
    <path d="M872.634,649.053 L736.217,649.053" fill-opacity="0" stroke="#000000" stroke-width="2"/>
    <path d="M736.217,706.414 L737.166,648.07" fill-opacity="0" stroke="#000000" stroke-width="2"/>
    <path d="M736.217,649.053 L751.39,649.053" fill-opacity="0" stroke="#000000" stroke-width="2"/>
    <path d="M1128.791,867.411 L1128.791,909.74" fill-opacity="0" stroke="#000000" stroke-width="2"/>
  </g>
</svg>
