<?xml version="1.0" encoding="UTF-8" standalone="no"?>
<!-- Created with Inkscape (http://www.inkscape.org/) -->

<svg
   xmlns:dc="http://purl.org/dc/elements/1.1/"
   xmlns:cc="http://creativecommons.org/ns#"
   xmlns:rdf="http://www.w3.org/1999/02/22-rdf-syntax-ns#"
   xmlns:svg="http://www.w3.org/2000/svg"
   xmlns="http://www.w3.org/2000/svg"
   xmlns:sodipodi="http://sodipodi.sourceforge.net/DTD/sodipodi-0.dtd"
   xmlns:inkscape="http://www.inkscape.org/namespaces/inkscape"
   id="svg4350"
   version="1.1"
   inkscape:version="0.91 r13725"
   width="2500"
   height="1683.75"
   viewBox="0 0 2500 1683.75"
   sodipodi:docname="muriInterni.svg">
 
  <g
     inkscape:groupmode="layer"
     id="layer2"
     inkscape:label="muriInterni"
     style="display:inline">
    <path
       style="fill:none;fill-rule:evenodd;stroke:#000000;stroke-width:1px;stroke-linecap:butt;stroke-linejoin:miter;stroke-opacity:1"
       d="m 456.61017,766.96239 c 0,174.79608 0,103.45075 0,103.45075 l 228.30508,3.56726 3.56727,64.21081 -3.56727,-64.21081 239.00689,3.56727 -3.56727,-74.91261 21.40361,-3.56726 -17.83634,3.56726 0,74.91261 153.39246,-3.56727 -3.5672,-74.9126 -7.1346,0 0,0"
       id="path4367"
       inkscape:connector-curvature="0" />
    <path
       style="fill:none;fill-rule:evenodd;stroke:#000000;stroke-width:1px;stroke-linecap:butt;stroke-linejoin:miter;stroke-opacity:1"
       d="m 271.11229,1084.4492 203.33421,0 -24.97086,0 0,-57.0763"
       id="path4369"
       inkscape:connector-curvature="0"
       sodipodi:nodetypes="cccc" />
    <path
       style="fill:none;fill-rule:evenodd;stroke:#000000;stroke-width:1px;stroke-linecap:butt;stroke-linejoin:miter;stroke-opacity:1"
       d="m 456.61017,870.41314 0,60.64353 z"
       id="path4371"
       inkscape:connector-curvature="0" />
    <path
       style="fill:none;fill-rule:evenodd;stroke:#000000;stroke-width:1px;stroke-linecap:butt;stroke-linejoin:miter;stroke-opacity:1"
       d="m 688.48252,1412.6377 c -3.56727,-378.1303 -3.56727,-381.6976 -3.56727,-381.6976 l 0,49.9418 -110.58527,3.5673 0,-57.0763 0,0"
       id="path4373"
       inkscape:connector-curvature="0" />
    <path
       style="fill:none;fill-rule:evenodd;stroke:#000000;stroke-width:1px;stroke-linecap:butt;stroke-linejoin:miter;stroke-opacity:1"
       d="m 1337.7251,196.19968 c 3.5673,788.366 3.5673,788.366 3.5673,788.366 l 0,0 0,0"
       id="path4375"
       inkscape:connector-curvature="0" />
    <path
       style="fill:none;fill-rule:evenodd;stroke:#000000;stroke-width:1px;stroke-linecap:butt;stroke-linejoin:miter;stroke-opacity:1"
       d="m 1337.7251,1309.187 3.5673,-231.8724 0,10.7018 82.0471,0 -19.6199,0 1.7835,46.3745"
       id="path4377"
       inkscape:connector-curvature="0"
       sodipodi:nodetypes="cccccc" />
    <path
       style="fill:none;fill-rule:evenodd;stroke:#000000;stroke-width:1px;stroke-linecap:butt;stroke-linejoin:miter;stroke-opacity:1"
       d="m 1801.4698,1416.205 0,-346.0249 0,17.8363 -285.3813,0 0,0"
       id="path4379"
       inkscape:connector-curvature="0" />
    <path
       style="fill:none;fill-rule:evenodd;stroke:#000000;stroke-width:1px;stroke-linecap:butt;stroke-linejoin:miter;stroke-opacity:1"
       d="m 2104.6875,535.09004 -189.0651,0 0,-21.4036 0,21.4036 -110.5853,3.56727 0,0 -7.1345,0"
       id="path4381"
       inkscape:connector-curvature="0"
       sodipodi:nodetypes="ccccccc" />
    <path
       style="fill:none;fill-rule:evenodd;stroke:#000000;stroke-width:1px;stroke-linecap:butt;stroke-linejoin:miter;stroke-opacity:1"
       d="m 1797.9025,363.86123 3.5673,620.70445"
       id="path4383"
       inkscape:connector-curvature="0" />
    <path
       style="fill:none;fill-rule:evenodd;stroke:#000000;stroke-width:1px;stroke-linecap:butt;stroke-linejoin:miter;stroke-opacity:1"
       d="m 1801.4698,970.29661 -85.6144,3.56727 0,0 -10.7018,-3.56727"
       id="path4385"
       inkscape:connector-curvature="0" />
    <path
       style="fill:none;fill-rule:evenodd;stroke:#000000;stroke-width:1px;stroke-linecap:butt;stroke-linejoin:miter;stroke-opacity:1"
       d="m 1801.4698,873.9804 -388.8321,0"
       id="path4387"
       inkscape:connector-curvature="0" />
    <path
       style="fill:none;fill-rule:evenodd;stroke:#000000;stroke-width:1px;stroke-linecap:butt;stroke-linejoin:miter;stroke-opacity:1"
       d="m 1437.6086,813.33686 3.5672,164.09428 24.9709,0"
       id="path4389"
       inkscape:connector-curvature="0" />
    <path
       style="fill:none;fill-rule:evenodd;stroke:#000000;stroke-width:1px;stroke-linecap:butt;stroke-linejoin:miter;stroke-opacity:1"
       d="m 1801.4698,717.02066 -363.8612,0"
       id="path4391"
       inkscape:connector-curvature="0" />
    <path
       style="fill:none;fill-rule:evenodd;stroke:#000000;stroke-width:1px;stroke-linecap:butt;stroke-linejoin:miter;stroke-opacity:1"
       d="m 1797.9025,192.63241 1.7837,82.04714"
       id="path4393"
       inkscape:connector-curvature="0"
       sodipodi:nodetypes="cc" />
    <path
       style="fill:none;fill-rule:evenodd;stroke:#000000;stroke-width:1px;stroke-linecap:butt;stroke-linejoin:miter;stroke-opacity:1"
       d="m 1915.6224,142.69068 3.5672,103.45074"
       id="path4395"
       inkscape:connector-curvature="0"
       sodipodi:nodetypes="cc" />
    <path
       style="fill:none;fill-rule:evenodd;stroke:#000000;stroke-width:1px;stroke-linecap:butt;stroke-linejoin:miter;stroke-opacity:1"
       d="m 2097.553,424.50477 -185.4979,3.56726"
       id="path4397"
       inkscape:connector-curvature="0" />
    <path
       style="fill:none;fill-rule:evenodd;stroke:#000000;stroke-width:1px;stroke-linecap:butt;stroke-linejoin:miter;stroke-opacity:1"
       d="m 1405.5032,1423.3395 0,-60.6435 0,0"
       id="path4399"
       inkscape:connector-curvature="0" />
  </g>
  <path
     style="fill:none;fill-rule:evenodd;stroke:#000000;stroke-width:1px;stroke-linecap:butt;stroke-linejoin:miter;stroke-opacity:1"
     d="m 613.56992,1419.7722 0,-48.158"
     id="path4401"
     inkscape:connector-curvature="0"
     sodipodi:nodetypes="cc" />
  <path
     style="fill:none;fill-rule:evenodd;stroke:#000000;stroke-width:1px;stroke-linecap:butt;stroke-linejoin:miter;stroke-opacity:1"
     d="m 613.56992,1079.0983 0,48.1581 0,0"
     id="path4403"
     inkscape:connector-curvature="0"
     sodipodi:nodetypes="ccc" />
</svg>
