<?xml version="1.0" encoding="UTF-8" standalone="no"?>
<svg
   xmlns:dc="http://purl.org/dc/elements/1.1/"
   xmlns:cc="http://creativecommons.org/ns#"
   xmlns:rdf="http://www.w3.org/1999/02/22-rdf-syntax-ns#"
   xmlns:svg="http://www.w3.org/2000/svg"
   xmlns="http://www.w3.org/2000/svg"
   version="1.1"
   id="svg2"
   viewBox="0 0 1169.2913 708.66141"
   height="200mm"
   width="330mm">
 
  <g
     transform="translate(0,-343.70079)"
     id="layer1">
    <path
       id="path4407"
       d="m 132.85708,556.64794 -2.85714,71.42857 1.42857,-41.42857 50,11.42857 c 13.8579,-1.5289 27.67423,-3.4346 41.42857,-5.71428 16.77105,-2.77968 33.44992,-6.11546 50,-10 l 35.71429,8.57143 32.85714,30 2.85714,15.71428 -38.57142,45.71429 -15.71429,47.14285 -4.28571,58.57143 -18.57143,10 -44.28572,15.71429 -88.57143,18.57143 -18.57142,-5.71429 -8.57143,-37.14286 c 3.13193,12.79402 5.98995,25.65509 8.57143,38.57143 3.3145,16.58394 6.17308,33.259 8.57142,50 l -1.42857,-2.85714"
       style="fill:none;fill-rule:evenodd;stroke:#000000;stroke-width:1px;stroke-linecap:butt;stroke-linejoin:miter;stroke-opacity:1" />
    <path
       id="path4411"
       d="m 282.85708,789.50508 14.28572,57.14286 c 3.7331,11.45386 7.54274,22.88277 11.42857,34.28572 8.11189,23.80428 16.55646,47.49731 24.28571,71.42857 2.45339,7.59616 4.83448,15.21567 7.14286,22.85714 l -38.57143,10 -52.85714,28.57143 -40,17.1429 -37.14286,4.2857 -18.57143,-22.8572 -7.14285,-17.14283 0,1.42857 1.42857,1.42857"
       style="fill:none;fill-rule:evenodd;stroke:#000000;stroke-width:1px;stroke-linecap:butt;stroke-linejoin:miter;stroke-opacity:1" />
    <path
       id="path4415"
       d="m 169.99994,1032.3622 5.71429,27.1429 5.71428,2.8571"
       style="fill:none;fill-rule:evenodd;stroke:#000000;stroke-width:1px;stroke-linecap:butt;stroke-linejoin:miter;stroke-opacity:1" />
    <path
       id="path4419"
       d="m 339.99994,975.21937 14.28571,35.71433 c 2.16949,7.683 4.55166,15.3059 7.14286,22.8571 2.64144,7.6976 5.5001,15.3207 8.57143,22.8571 l 34.28571,5.7143 28.57143,-2.8571 c 19.23524,-5.592 38.29532,-11.7865 57.14286,-18.5714 18.30691,-6.5903 36.41331,-13.7376 54.28571,-21.4286 21.23815,-5.9798 42.68393,-11.2221 64.28572,-15.7143 4.75453,-0.9887 9.51662,-1.9411 14.28571,-2.8571 l 17.14286,11.4285 21.42857,1.4286 22.85714,-7.1429 14.28572,-21.42853 -20,-12.85714 -28.57143,0 -17.14286,10 -8.57143,17.14286 0,0"
       style="fill:none;fill-rule:evenodd;stroke:#000000;stroke-width:1px;stroke-linecap:butt;stroke-linejoin:miter;stroke-opacity:1" />
    <path
       id="path4423"
       d="m 698.57137,983.7908 c 14.70192,-3.59195 29.46685,-6.92596 44.28571,-10 20.85408,-4.32599 41.81498,-8.13706 62.85715,-11.42857 l 34.28571,-1.42857 44.28571,4.28571 c 12.41607,3.20103 24.79796,6.53462 37.14286,10 17.69784,4.96803 35.31964,10.20694 52.85714,15.71429 l 32.85715,7.14285 -5.7143,21.42859 c -3.22647,7.1921 -6.5603,14.336 -9.99999,21.4286 -2.78788,5.7486 -5.6453,11.4634 -8.57143,17.1428"
       style="fill:none;fill-rule:evenodd;stroke:#000000;stroke-width:1px;stroke-linecap:butt;stroke-linejoin:miter;stroke-opacity:1" />
    <path
       id="path4427"
       d="m 1007.1428,999.50509 27.1428,4.28571 50,12.8571 35.7143,5.7143 10,5.7143 -11.4286,28.5714 -1.4285,8.5715"
       style="fill:none;fill-rule:evenodd;stroke:#000000;stroke-width:1px;stroke-linecap:butt;stroke-linejoin:miter;stroke-opacity:1" />
    <path
       id="path4431"
       d="m 1127.1428,1028.0765 c 1.5565,-19.011 2.5095,-38.0714 2.8571,-57.14284 0.1996,-10.95117 0.1996,-21.90598 0,-32.85715 l 5.7143,-45.71428 c -2.0596,-12.83357 -3.9645,-25.69196 -5.7143,-38.57143 -1.5505,-11.41288 -2.9792,-22.84232 -4.2857,-34.28571 -2.4655,-13.88671 -5.3242,-27.70361 -8.5714,-41.42858 -1.8082,-7.6427 -3.7368,-15.25648 -5.7143,-22.85714 -1.8614,-7.15433 -3.7662,-14.29736 -5.7143,-21.42857 l 1.4286,-58.57143 11.4285,-37.14286 5.7143,-24.28571 11.4286,-17.14286"
       style="fill:none;fill-rule:evenodd;stroke:#000000;stroke-width:1px;stroke-linecap:butt;stroke-linejoin:miter;stroke-opacity:1" />
    <path
       id="path4439"
       d="m 1005.7142,999.50509 4.2857,-34.28572 1.4286,-37.14286 c -0.4635,-6.66757 -0.9397,-13.33425 -1.4286,-20 -0.9084,-12.38428 -1.8608,-24.76533 -2.8571,-37.14285 -1.738,-13.35645 -3.643,-26.69117 -5.7143,-40 -1.7818,-11.44861 -3.68671,-22.87807 -5.71427,-34.28572 l -2.85715,-28.57143 -14.28571,-5.71428 -34.28572,5.71428 -58.57142,2.85715 -68.57143,-4.28572 -38.57143,-12.85714 -31.42857,-17.14286 -28.57143,-32.85714 -17.14286,-55.71429 -2.85714,-38.57143 -18.57143,-52.85714 -10,-22.85714 -7.14286,-8.57143 -57.14285,24.28571 -34.28572,21.42858 -34.28571,15.71428 c -16.9754,5.33945 -34.13131,10.10498 -51.42857,14.28572 -14.71024,3.55545 -29.51894,6.68724 -44.28572,10 -23.44173,5.25888 -46.78097,10.97461 -70,17.14285 l -28.57143,0 -2.85714,-1.42857 0,2.85714 0,0"
       style="fill:none;fill-rule:evenodd;stroke:#000000;stroke-width:1px;stroke-linecap:butt;stroke-linejoin:miter;stroke-opacity:1" />
    <path
       id="path4443"
       d="m 535.71423,585.21937 18.57142,35.71429 12.85715,42.85714 1.42857,57.14286 -17.14286,52.85714 -38.57143,38.57143 -71.42857,18.57143 c -26.26679,3.80062 -52.46324,8.08731 -78.57143,12.85714 -14.79131,2.70229 -29.5543,5.55965 -44.28571,8.57143 l -22.85714,-2.85714"
       style="fill:none;fill-rule:evenodd;stroke:#000000;stroke-width:1px;stroke-linecap:butt;stroke-linejoin:miter;stroke-opacity:1" />
    <path
       id="path4447"
       d="m 559.99994,749.50508 -50,-24.28571 -67.14286,-8.57143 -55.71428,12.85714 -57.14286,-7.14285 -32.85714,-20 0,0 0,1.42857"
       style="fill:none;fill-rule:evenodd;stroke:#000000;stroke-width:1px;stroke-linecap:butt;stroke-linejoin:miter;stroke-opacity:1" />
    <path
       id="path4451"
       d="m 659.99994,525.21937 c 14.61963,-6.07313 29.38739,-11.78968 44.28571,-17.14286 14.17269,-5.09245 28.46353,-9.85606 42.85715,-14.28571 l 37.14285,-7.14286 28.57143,0 28.57143,2.85714 35.71429,14.28572 52.85714,25.71428 37.14286,35.71429 18.57143,61.42857 c 1.37403,16.639 2.32681,33.31279 2.85714,50 0.66565,20.94533 0.66565,41.91181 0,62.85714 l 2.85714,27.14286"
       style="fill:none;fill-rule:evenodd;stroke:#000000;stroke-width:1px;stroke-linecap:butt;stroke-linejoin:miter;stroke-opacity:1" />
    <path
       id="path4455"
       d="m 968.57137,572.36223 c 11.70163,-9.3108 23.61029,-18.36141 35.71423,-27.14286 10.7998,-7.83531 21.7551,-15.45636 32.8572,-22.85714 l 37.1428,-14.28572 42.8572,-10 35.7142,1.42857"
       style="fill:none;fill-rule:evenodd;stroke:#000000;stroke-width:1px;stroke-linecap:butt;stroke-linejoin:miter;stroke-opacity:1" />
    <path
       id="path4459"
       d="m 1062.857,510.93366 -17.1428,-34.28572 -21.4286,-51.42857 -2.8571,-17.14286 27.1428,-17.14285 30,-5.71429 48.5715,-4.28571 24.2857,1.42857"
       style="fill:none;fill-rule:evenodd;stroke:#000000;stroke-width:1px;stroke-linecap:butt;stroke-linejoin:miter;stroke-opacity:1" />
    <path
       id="path4463"
       d="m 1019.9999,408.07651 -41.42853,12.85715 c -8.64405,4.13837 -17.21716,8.42492 -25.71429,12.85714 -13.0421,6.80294 -25.90518,13.94909 -38.57143,21.42857 l -15.71428,20 c -4.51835,6.51323 -8.8076,13.18539 -12.85714,20 -1.96135,3.30057 -3.86648,6.63455 -5.71429,10"
       style="fill:none;fill-rule:evenodd;stroke:#000000;stroke-width:1px;stroke-linecap:butt;stroke-linejoin:miter;stroke-opacity:1" />
    <path
       id="path4467"
       d="m 701.42851,629.50508 40,-17.14285 32.85714,-7.14286 40,4.28571 32.85715,15.71429 18.57143,24.28571 0,28.57143 2.85714,30 0,27.14286 0,27.14286 -1.42857,5.71428"
       style="fill:none;fill-rule:evenodd;stroke:#000000;stroke-width:1px;stroke-linecap:butt;stroke-linejoin:miter;stroke-opacity:1" />
  </g>
  <g
     id="layer3" />
</svg>
